<?xml version="1.0" encoding="UTF-8"?>
<svg xmlns="http://www.w3.org/2000/svg" xmlns:xlink="http://www.w3.org/1999/xlink" viewBox="0 0 64 64" width="64px" height="64px">
<g id="surface53147">
<path style=" stroke:none;fill-rule:nonzero;fill:rgb(54.901963%,49.411765%,70.980394%);fill-opacity:1;" d="M 26.878906 3.839844 C 14.851562 3.839844 5.121094 13.570312 5.121094 25.601562 C 5.121094 37.628906 14.851562 47.359375 26.878906 47.359375 C 31.175781 47.359375 35.148438 46.101562 38.519531 43.960938 L 54.238281 59.679688 L 59.679688 54.238281 L 44.160156 38.761719 C 46.949219 35.101562 48.640625 30.566406 48.640625 25.601562 C 48.640625 13.570312 38.910156 3.839844 26.878906 3.839844 Z M 26.878906 8.960938 C 36.09375 8.960938 43.519531 16.386719 43.519531 25.601562 C 43.519531 34.816406 36.09375 42.238281 26.878906 42.238281 C 17.664062 42.238281 10.238281 34.816406 10.238281 25.601562 C 10.238281 16.386719 17.664062 8.960938 26.878906 8.960938 Z M 26.878906 8.960938 "/>
</g>
</svg>
